<svg xmlns="http://www.w3.org/2000/svg" viewBox="0 0 512 512">
  <defs>
    <linearGradient id="bg" x1="0%" y1="0%" x2="100%" y2="100%">
      <stop offset="0%" stop-color="#ffb38c"/>
      <stop offset="100%" stop-color="#ef6a2e"/>
    </linearGradient>
    <linearGradient id="glow" x1="0%" y1="0%" x2="100%" y2="100%">
      <stop offset="0%" stop-color="#ffffff" stop-opacity="0.95"/>
      <stop offset="100%" stop-color="#fff1e7" stop-opacity="0.7"/>
    </linearGradient>
  </defs>
  <rect width="512" height="512" rx="120" fill="url(#bg)"/>
  <circle cx="256" cy="256" r="150" fill="url(#glow)" opacity="0.22"/>
  <path d="M154 314c0-55 41-96 102-96 23 0 44 5 63 16v-64h44v174c0 24-6 43-18 58-23 29-58 43-104 43-39 0-72-11-99-32l24-34c21 16 45 24 72 24 48 0 73-20 77-61-18 10-37 15-59 15-61 0-102-40-102-96Zm103-54c-37 0-60 21-60 54 0 34 23 55 60 55 35 0 62-20 62-55 0-33-27-54-62-54Z" fill="#fffaf6"/>
</svg>
